<svg t="1736068876844" class="icon" viewBox="0 0 1024 1024" version="1.1" xmlns="http://www.w3.org/2000/svg" p-id="11724" width="128" height="128"><path d="M639.0016 1024h282.1888A102.9376 102.9376 0 0 0 1024 921.1904V751.872a102.9376 102.9376 0 0 0-102.8096-102.8096h-21.3504v-371.2a91.648 91.648 0 0 0-91.5456-91.52h-179.3792V102.912A102.912 102.912 0 0 0 526.1056 0H102.8096A102.9376 102.9376 0 0 0 0 102.8096v225.7664a102.9376 102.9376 0 0 0 102.8096 102.8096h423.296a102.912 102.912 0 0 0 102.8096-102.8096V250.88h179.3792a22.2208 22.2208 0 0 1 21.376 21.3504v376.9344h-190.6688a102.9376 102.9376 0 0 0-102.8352 102.8096v21.1456h-133.12v-21.248a102.912 102.912 0 0 0-102.784-102.8096H102.7072A102.9376 102.9376 0 0 0 0 751.872v169.3184A102.9376 102.9376 0 0 0 102.8096 1024h197.5552a102.912 102.912 0 0 0 102.784-102.8096v-77.7984h133.12v77.7984A102.9376 102.9376 0 0 0 639.0016 1024z m-74.5984-695.424a36.6336 36.6336 0 0 1-38.4 38.4H102.8096a36.6336 36.6336 0 0 1-38.4-38.4V102.8096a36.608 36.608 0 0 1 38.4-38.4h423.296a36.608 36.608 0 0 1 38.4 38.4v225.7664z m36.3008 423.296a36.6592 36.6592 0 0 1 38.4-38.4h282.1888a36.6336 36.6336 0 0 1 38.4 38.4v169.3184a36.6336 36.6336 0 0 1-38.4 38.4H639.0016a36.6336 36.6336 0 0 1-38.4-38.4V751.872z m-262.0672 169.3184a36.6336 36.6336 0 0 1-38.4 38.4H102.6816a36.6336 36.6336 0 0 1-38.4-38.4V751.872a36.6592 36.6592 0 0 1 38.4-38.4h197.5552a36.6336 36.6336 0 0 1 38.4 38.4v169.3184z" fill="#ffffff" p-id="11725"></path></svg>